<svg width="209" height="20" viewBox="0 0 209 20" fill="none" xmlns="http://www.w3.org/2000/svg">
<g clip-path="url(#clip0_388_25)">
<path d="M24.2305 0.816329C23.6995 0.840338 23.2651 0.912367 22.9514 1.03241C22.6376 1.15246 22.3239 1.34454 22.0584 1.60865C21.8412 1.80072 21.6964 2.01681 21.5999 2.2569C21.5033 2.497 21.4309 2.78512 21.3827 3.14526C21.3103 3.62545 21.2861 4.20168 21.2861 4.87395V15.1501C21.2861 16.1104 21.3344 16.8307 21.4551 17.2869C21.5758 17.7431 21.7688 18.1273 22.0584 18.4154C22.5652 18.9196 23.2893 19.1837 24.2305 19.2317V19.5438H15.2768V19.2317C15.8077 19.2077 16.2663 19.1357 16.58 18.9916C16.9179 18.8715 17.2075 18.6795 17.473 18.4154C17.7626 18.1273 17.9557 17.7431 18.0763 17.2869C18.1729 16.8307 18.2453 16.1104 18.2453 15.1741V2.68908L11.0292 19.5438H10.7396L3.52356 2.92917V15.1501C3.52356 16.1104 3.57182 16.8067 3.69249 17.2629C3.78903 17.7191 4.00624 18.1032 4.29584 18.3914C4.56132 18.6555 4.85092 18.8475 5.1888 18.9676C5.52667 19.0876 5.96109 19.1597 6.49203 19.1837V19.4958H0V19.1837C0.530947 19.1597 0.965358 19.0876 1.30323 18.9676C1.64111 18.8475 1.93072 18.6555 2.19619 18.3914C2.4858 18.1032 2.67887 17.7191 2.79954 17.2629C2.89607 16.8067 2.96848 16.0864 2.96848 15.1501V4.87395C2.96848 4.44178 2.96848 4.03362 2.92021 3.64946C2.87194 2.95318 2.7754 2.44898 2.60647 2.13686C2.36513 1.70468 2.05139 1.36855 1.64111 1.17647C1.23083 0.960386 0.699885 0.840338 0.0241339 0.816329V0.480194H6.08176L12.1635 15.3902L18.4625 0.480194H24.2305V0.792319V0.816329Z" fill="white"/>
<path d="M50.7778 3.02521V15.1501C50.7778 16.1104 50.8261 16.8067 50.9467 17.2629C51.0433 17.7191 51.2605 18.1032 51.5501 18.3914C51.8156 18.6555 52.1052 18.8475 52.443 18.9676C52.7809 19.0876 53.2153 19.1597 53.7463 19.1837V19.4958H47.2784V19.1837C47.8093 19.1597 48.2437 19.0876 48.5816 18.9676C48.9195 18.8475 49.2091 18.6555 49.4746 18.3914C49.7642 18.1032 49.9572 17.7191 50.0779 17.2629C50.1745 16.8067 50.2469 16.0864 50.2469 15.1501V4.84994C50.2469 3.91357 50.1986 3.21729 50.0779 2.76111C49.9814 2.30492 49.7642 1.92077 49.4746 1.63266C49.2332 1.36855 48.9195 1.17647 48.6057 1.05642C48.2679 0.936377 47.8335 0.864348 47.3025 0.840338V0.480194H52.7085L64.0997 14.934V4.87395C64.0997 3.91357 64.0515 3.21729 63.9308 2.76111C63.8343 2.30492 63.6171 1.92077 63.3275 1.63266C63.062 1.36855 62.7724 1.17647 62.4345 1.05642C62.0966 0.936377 61.6622 0.864348 61.1313 0.840338V0.480194H67.5992V0.792319C66.6579 0.792319 65.9339 1.05642 65.403 1.60865C65.1134 1.89676 64.9203 2.28091 64.7996 2.7371C64.7031 3.19328 64.6307 3.88956 64.6307 4.82593V19.4958H64.0032L50.7778 3.02521Z" fill="white"/>
<path d="M73.0293 3.02521V15.1501C73.0293 16.1104 73.0776 16.8067 73.1983 17.2629C73.2948 17.7191 73.512 18.1032 73.8016 18.3914C74.0671 18.6555 74.3567 18.8475 74.6946 18.9676C75.0325 19.0876 75.4669 19.1597 75.9978 19.1837V19.4958H69.5299V19.1837C70.0609 19.1597 70.4953 19.0876 70.8331 18.9676C71.171 18.8475 71.4606 18.6555 71.7261 18.3914C72.0157 18.1032 72.2088 17.7191 72.3294 17.2629C72.426 16.8067 72.4984 16.0864 72.4984 15.1501V4.84994C72.4984 3.91357 72.4501 3.21729 72.3294 2.76111C72.2329 2.30492 72.0157 1.92077 71.7261 1.63266C71.4848 1.36855 71.171 1.17647 70.8573 1.05642C70.5194 0.936377 70.085 0.864348 69.554 0.840338V0.480194H74.96L86.3513 14.934V4.87395C86.3513 3.91357 86.303 3.21729 86.1823 2.76111C86.0858 2.30492 85.8686 1.92077 85.579 1.63266C85.3135 1.36855 85.0239 1.17647 84.686 1.05642C84.3482 0.936377 83.9137 0.864348 83.3828 0.840338V0.480194H89.8507V0.792319C88.9095 0.792319 88.1855 1.05642 87.6545 1.60865C87.3649 1.89676 87.1718 2.28091 87.0512 2.7371C86.9546 3.19328 86.8822 3.88956 86.8822 4.82593V19.4958H86.2547L73.0293 3.02521Z" fill="white"/>
<path d="M100.759 0.480194V0.792319C100.228 0.816329 99.7939 0.888357 99.456 1.00841C99.1182 1.12845 98.8285 1.32053 98.5631 1.58464C98.2011 1.94478 97.9839 2.47299 97.8873 3.12125C97.8391 3.62545 97.8149 4.17767 97.8149 4.82593V15.1501C97.8149 15.9184 97.8632 16.5426 97.9356 16.9748C98.008 17.431 98.1287 17.7911 98.2976 18.0552C98.5389 18.4394 98.8527 18.7035 99.2388 18.8956C99.625 19.0876 100.132 19.1837 100.759 19.2317V19.5438H91.8056V19.2317C92.3365 19.2077 92.7951 19.1357 93.1088 18.9916C93.4467 18.8715 93.7363 18.6795 93.9776 18.4154C94.2672 18.1273 94.4844 17.7431 94.581 17.2869C94.6775 16.8307 94.7258 16.1345 94.7258 15.1741V4.87395C94.7258 3.91357 94.6775 3.21729 94.581 2.76111C94.4844 2.30492 94.2672 1.92077 93.9776 1.63266C93.7363 1.36855 93.4225 1.17647 93.0847 1.05642C92.7468 0.936377 92.3124 0.864348 91.7814 0.840338V0.480194H100.735H100.759Z" fill="white"/>
<path d="M106.214 3.02521V15.1501C106.214 16.1104 106.262 16.8067 106.382 17.2629C106.479 17.7191 106.696 18.1032 106.986 18.3914C107.251 18.6555 107.541 18.8475 107.879 18.9676C108.217 19.0876 108.651 19.1597 109.182 19.1837V19.4958H102.714V19.1837C103.245 19.1597 103.679 19.0876 104.017 18.9676C104.355 18.8475 104.645 18.6555 104.91 18.3914C105.2 18.1032 105.393 17.7191 105.514 17.2629C105.61 16.8067 105.683 16.0864 105.683 15.1501V4.84994C105.683 3.91357 105.634 3.21729 105.514 2.76111C105.417 2.30492 105.2 1.92077 104.91 1.63266C104.669 1.36855 104.355 1.17647 104.041 1.05642C103.704 0.936377 103.269 0.864348 102.738 0.840338V0.480194H108.144L119.535 14.934V4.87395C119.535 3.91357 119.487 3.21729 119.367 2.76111C119.27 2.30492 119.053 1.92077 118.763 1.63266C118.498 1.36855 118.208 1.17647 117.87 1.05642C117.532 0.936377 117.098 0.864348 116.567 0.840338V0.480194H123.035V0.792319C122.094 0.792319 121.37 1.05642 120.839 1.60865C120.549 1.89676 120.356 2.28091 120.235 2.7371C120.139 3.19328 120.066 3.88956 120.066 4.82593V19.4958H119.439L106.238 2.97719L106.214 3.02521Z" fill="white"/>
<path d="M142.535 0.480207L142.704 6.55464H142.39C141.739 4.51382 140.918 2.97721 139.905 1.9688C138.891 0.960399 137.684 0.456198 136.236 0.456198C135.126 0.456198 134.161 0.672284 133.364 1.12847C132.568 1.58465 131.82 2.30494 131.12 3.33735C129.72 5.40218 129.02 7.77913 129.02 10.4442C129.02 11.7167 129.189 12.9172 129.527 14.0456C129.865 15.1741 130.347 16.1825 130.999 17.0468C132.254 18.7275 133.774 19.5678 135.585 19.5678C136.284 19.5678 136.96 19.4238 137.588 19.1117C138.215 18.8235 138.722 18.4154 139.132 17.8872C139.687 17.1669 139.953 16.3025 139.953 15.2941C139.953 14.3818 139.711 13.7095 139.205 13.3013C138.698 12.8932 137.877 12.6771 136.719 12.6771V12.365H145.673V12.6771C144.852 12.7491 144.273 12.8692 143.935 13.0132C143.597 13.1573 143.356 13.4214 143.187 13.8055C143.018 14.2137 142.921 15.03 142.921 16.2545C142.921 16.5907 142.921 17.1189 142.97 17.8151V18.1273C142.632 18.0072 142.39 17.9352 142.221 17.9352C142.004 17.9352 141.763 18.0312 141.425 18.2473C140.604 18.7995 139.663 19.2317 138.601 19.5198C137.515 19.8079 136.381 19.976 135.198 19.976C133.557 19.976 132.061 19.6879 130.734 19.1357C129.406 18.5835 128.344 17.7671 127.524 16.7347C126.896 15.9424 126.438 15.03 126.1 13.9496C125.762 12.8692 125.593 11.7167 125.593 10.5162C125.593 8.85956 125.883 7.29894 126.486 5.88237C127.089 4.44179 127.934 3.26532 129.02 2.32895C129.913 1.58465 130.927 0.984409 132.085 0.576246C133.244 0.168082 134.474 -0.0480042 135.753 -0.0480042C136.502 -0.0480042 137.202 0.0240247 137.829 0.168082C138.481 0.31214 139.156 0.528226 139.88 0.840351L140.701 1.2245C140.918 1.29653 141.087 1.34455 141.256 1.34455C141.618 1.34455 141.908 1.03243 142.101 0.432188H142.463L142.535 0.480207Z" fill="white"/>
<path d="M159.256 8.48305L164.275 14.733C164.982 13.5525 165.462 12.6729 165.735 12.0247C166.009 11.3997 166.146 10.8673 166.146 10.4275C166.146 9.57101 165.462 9.0386 164.07 8.85342V8.57564H169.888V8.85342C169.432 8.89971 169.044 8.96916 168.77 9.06175C168.473 9.15434 168.2 9.31638 167.949 9.54786C167.447 9.98768 166.808 10.8905 166.055 12.3025L165.599 13.159C165.348 13.6451 164.982 14.2701 164.503 15.0571C164.891 15.4969 165.325 15.983 165.85 16.5155C166.374 17.0247 166.831 17.4645 167.218 17.7886C167.789 18.2516 168.291 18.5988 168.702 18.8071C169.135 19.0155 169.546 19.1312 169.934 19.1312C170.367 19.1312 170.732 19.0155 171.006 18.8071C171.303 18.5988 171.554 18.2516 171.759 17.7655L172.056 17.8812C171.554 19.409 170.481 20.1729 168.838 20.1729C168.291 20.1729 167.72 20.0803 167.104 19.8951C166.511 19.7099 165.964 19.4553 165.462 19.108C164.709 18.5988 163.933 17.9275 163.134 17.071C162.701 17.6497 162.336 18.0664 162.062 18.3673C161.492 18.946 160.807 19.3858 160.031 19.7099C159.256 20.0108 158.434 20.1729 157.544 20.1729C156.746 20.1729 155.947 20.034 155.194 19.7793C154.441 19.5016 153.825 19.1312 153.346 18.6682C152.456 17.8118 152 16.7469 152 15.4506C152 14.1543 152.434 12.9969 153.278 11.9553C153.62 11.5386 154.031 11.1451 154.51 10.7979C154.989 10.4275 155.628 10.0108 156.472 9.52471L156.723 9.38582C156.107 8.59879 155.673 7.97379 155.4 7.51082C154.784 6.44601 154.487 5.49693 154.487 4.6636C154.487 4.15434 154.624 3.62193 154.898 3.11268C155.24 2.44138 155.765 1.93212 156.449 1.5849C157.134 1.23768 157.955 1.05249 158.891 1.05249C160.123 1.05249 161.149 1.35342 161.948 1.95527C162.746 2.55712 163.157 3.34416 163.157 4.29323C163.157 4.98768 162.952 5.61268 162.541 6.14508C162.13 6.67749 161.469 7.2099 160.533 7.74231C159.872 8.11268 159.438 8.39045 159.187 8.52934M157.02 9.73305C156.198 10.196 155.559 10.821 155.103 11.6543C154.647 12.4645 154.419 13.3905 154.419 14.3858C154.419 15.0803 154.533 15.7516 154.784 16.3997C155.035 17.0479 155.354 17.6034 155.765 18.0432C156.153 18.4368 156.609 18.7608 157.134 18.9923C157.658 19.2238 158.229 19.3395 158.822 19.3395C159.758 19.3395 160.579 19.0849 161.309 18.5525C161.583 18.3442 161.834 18.1358 162.039 17.9043C162.267 17.6729 162.541 17.3025 162.861 16.8395L157.042 9.77934L157.02 9.73305ZM159.187 8.23645C159.666 7.91238 160.972 5.78933 160.972 5.78933C161.5 4.7367 161.5 4.21039 161.5 4.21039C161.5 4.21039 161.5 3.15775 160.972 2.63144C160.972 2.63144 160.226 1.57881 158.861 1.57881C160.226 1.57881 157.496 1.57881 158.861 1.57881C157.496 1.57881 156.75 2.10512 156.75 2.10512C156.75 2.10512 155.972 2.62611 156.222 4.21039C156.283 4.59435 156.631 5.04327 157.278 5.96233C157.734 6.61048 158.579 7.61145 159.127 8.23645" fill="white"/>
<path d="M193.144 0.384154L193.313 6.62665H192.999C192.903 6.36254 192.806 6.14646 192.758 6.0024C192.42 5.11405 192.154 4.44178 191.961 4.0096C191.599 3.21729 191.068 2.52101 190.369 1.84874C189.838 1.34454 189.307 1.0084 188.752 0.768307C188.197 0.552221 187.569 0.432173 186.869 0.432173C185.807 0.432173 184.89 0.648259 184.118 1.10444C183.442 1.5126 182.791 2.08884 182.211 2.83313C181.632 3.57743 181.149 4.44178 180.763 5.40216C180.232 6.7467 179.967 8.28331 179.967 10.012C179.967 11.4766 180.16 12.7971 180.522 13.9496C180.884 15.126 181.415 16.1104 182.115 16.9028C183.394 18.3673 185.107 19.1116 187.255 19.1116C188.317 19.1116 189.283 18.9196 190.127 18.5594C190.972 18.1993 191.648 17.6711 192.106 16.9988C192.637 16.2305 193.047 15.1741 193.289 13.8776L193.603 13.9256C193.434 15.3902 193.023 16.5666 192.396 17.431C191.792 18.2473 190.972 18.8956 189.91 19.3277C188.848 19.7599 187.641 19.976 186.266 19.976C184.987 19.976 183.732 19.7839 182.573 19.3998C180.691 18.7755 179.219 17.6711 178.181 16.0624C177.119 14.4538 176.588 12.533 176.588 10.3241C176.588 8.61945 176.902 7.05882 177.505 5.61825C178.133 4.17767 178.977 3.02521 180.088 2.16086C180.932 1.4886 181.946 0.960384 183.128 0.552221C184.287 0.192077 185.494 0 186.676 0C187.859 0 188.993 0.216086 190.272 0.648259L191.43 1.03241C191.648 1.12845 191.841 1.15246 192.01 1.15246C192.251 1.15246 192.444 1.05642 192.589 0.864346C192.661 0.768307 192.734 0.62425 192.83 0.408163H193.168L193.144 0.384154Z" fill="white"/>
<path d="M195.871 7.87518C195.871 6.36258 196.426 5.01804 197.561 3.84157C198.936 2.40099 200.553 1.70471 202.46 1.70471C204.366 1.70471 205.983 2.425 207.335 3.84157C208.445 5.04205 209.024 6.38658 209.024 7.89919C209.024 9.41179 208.493 10.7083 207.431 11.8848C206.128 13.3254 204.463 14.0216 202.46 14.0216C200.457 14.0216 198.791 13.3014 197.488 11.8848C196.981 11.3326 196.571 10.7083 196.306 10.012C196.04 9.31576 195.895 8.61948 195.895 7.89919M198.453 7.73112C198.453 9.33977 198.815 10.7083 199.54 11.8368C200.36 13.0853 201.374 13.7095 202.556 13.7095C203.063 13.7095 203.546 13.5655 204.028 13.3014C204.511 13.0132 204.921 12.6291 205.259 12.1249C205.621 11.5967 205.911 10.9484 206.152 10.1561C206.369 9.36378 206.49 8.61948 206.49 7.87518C206.49 7.13088 206.369 6.33857 206.128 5.57026C205.887 4.80195 205.573 4.12968 205.163 3.57746C204.39 2.52104 203.449 1.99283 202.339 1.99283C201.229 1.99283 200.36 2.54505 199.612 3.64949C198.84 4.75393 198.453 6.09847 198.453 7.70711" fill="white"/>
<path d="M202.46 16.3986C202.918 16.3986 203.329 16.5666 203.666 16.9028C204.004 17.2389 204.173 17.6471 204.173 18.1032C204.173 18.5594 204.004 18.9676 203.666 19.3037C203.329 19.6399 202.942 19.8079 202.46 19.8079C201.977 19.8079 201.591 19.6399 201.253 19.3037C200.915 18.9676 200.746 18.5834 200.746 18.1032C200.746 17.623 200.915 17.2389 201.253 16.9028C201.591 16.5666 201.977 16.3986 202.46 16.3986Z" fill="white"/>
<path d="M44.9857 18.9916C44.6961 18.8956 44.4306 18.7755 44.2134 18.6074C43.8997 18.3673 43.6101 18.0072 43.3204 17.527C43.055 17.0468 42.693 16.2545 42.2344 15.1501L36.1285 0.480194H35.3321L30.1916 13.6375C29.733 14.8379 29.3469 15.7263 29.0573 16.3265C28.7677 16.9268 28.4781 17.407 28.1885 17.7911C27.8264 18.2713 27.4644 18.6074 27.1024 18.8235C26.7404 19.0396 26.2819 19.1597 25.7992 19.1837V19.4958H32.074V19.1837C31.4948 19.1357 31.0363 18.9916 30.6743 18.7275C30.4088 18.5354 30.2157 18.2953 30.0468 18.0072C29.902 17.7191 29.8054 17.383 29.8054 17.0468C29.8054 16.5186 29.9744 15.7983 30.3364 14.91H38.9522L39.0487 15.1261L39.2901 15.7023C39.5555 16.3505 39.6762 16.8547 39.6762 17.2389C39.6762 17.8872 39.3866 18.3914 38.8074 18.7515C38.4695 18.9676 37.8903 19.0876 37.0697 19.1597V19.4718H46.2889V19.1597C45.7097 19.0876 45.2753 19.0156 44.9857 18.9196M30.5777 14.3097L30.8191 13.7335L31.35 12.3169L34.5357 4.00961L38.735 14.3097H30.5777Z" fill="white"/>
</g>
<defs>
<clipPath id="clip0_388_25">
<rect width="209" height="20" fill="white"/>
</clipPath>
</defs>
</svg>
